<?xml version="1.0" encoding="UTF-8"?>
<svg id="Layer_1" xmlns="http://www.w3.org/2000/svg" version="1.1" viewBox="0 0 512 512">
  <!-- Generator: Adobe Illustrator 29.5.1, SVG Export Plug-In . SVG Version: 2.1.0 Build 141)  -->
  <defs>
    <style>
      .st0 {
        fill: #fff;
      }
    </style>
  </defs>
  <path class="st0" d="M383.7,108.7L278,2.4C276.5.8,274.5,0,272.4,0H41C22.8,0,8,14.8,8,33v446c0,18.2,14.8,33,33,33h312c18.2,0,33-14.8,33-33v-156.2l104.3-104.3c18.3-18.3,18.3-48,0-66.3-18.3-18.3-48-18.3-66.3,0l-38,38v-75.9c0-2.1-.8-4.1-2.3-5.6h0ZM398.4,200.4l43.7,43.7-153.1,153.1-43.7-43.7,153.1-153.1ZM420.5,178.4l43.7,43.7-10.8,10.8-43.7-43.7,10.7-10.7ZM238.1,368.9l35.4,35.4-44.1,8.2,8.8-43.6ZM284.3,31.4l69.9,70.3h-69.9V31.4ZM370,479c0,9.4-7.6,17-17,17H41c-9.4,0-17-7.6-17-17V33c0-9.4,7.6-17,17-17h227.3v93.7c0,4.4,3.6,8,8,8h93.7v88.5l-142.9,142.9c-1.1,1.1-1.9,2.5-2.2,4.1l-13.6,67.8c-.9,4.3,1.9,8.5,6.3,9.4,1,.2,2,.2,3,0l68.6-12.8c1.6-.3,3-1.1,4.2-2.2l76.6-76.6v140.2ZM479,163.5c12,12.1,12,31.6,0,43.7l-3.5,3.5-43.7-43.7,3.5-3.5c12.1-12,31.6-12,43.7,0h0ZM202,375c0,4.4-3.6,8-8,8h-124.9c-4.4,0-8-3.6-8-8s3.6-8,8-8h124.9c4.4,0,8,3.6,8,8h0s0,0,0,0ZM61.1,305.3c0-4.4,3.6-8,8-8h165c4.4,0,8,3.6,8,8s-3.6,8-8,8H69.1c-4.4,0-8-3.6-8-8h0ZM61.1,235.6c0-4.4,3.6-8,8-8h255.8c4.4,0,8,3.6,8,8s-3.6,8-8,8H69.1c-4.4,0-8-3.6-8-8h0ZM61.1,165.8c0-4.4,3.6-8,8-8h255.8c4.4,0,8,3.6,8,8s-3.6,8-8,8H69.1c-4.4,0-8-3.6-8-8h0ZM61.1,96.1c0-4.4,3.6-8,8-8h169.4c4.4,0,8,3.6,8,8s-3.6,8-8,8H69.1c-4.4,0-8-3.6-8-8h0Z"/>
</svg>